<svg xmlns="http://www.w3.org/2000/svg" xmlns:xlink="http://www.w3.org/1999/xlink" viewBox="0 0 24 24"><defs><symbol id="material_system_icon_border" data-name="material_system_icon_border" viewBox="0 0 48 48"><rect width="48" height="48" fill="none"/></symbol></defs><g id="border"><use width="48" height="48" transform="scale(0.5)" xlink:href="#material_system_icon_border"/></g><g id="Layer_5" data-name="Layer 5"><path d="M17.3,8H14.56s0,0,0,0V2.73a1,1,0,0,0-1-1H12.39a1,1,0,0,0-1,1V8s0,0,0,0H8.38A1.47,1.47,0,0,0,7,9.44a42,42,0,0,1-2.14,9.8A1.69,1.69,0,0,0,5,20.74a1.41,1.41,0,0,0,1.1.6l8,.14h.28l.41,0a1.68,1.68,0,0,0,1-.28,2.42,2.42,0,0,0,.68-.94A29.32,29.32,0,0,0,18.71,9.64a1.67,1.67,0,0,0-.44-1.22A1.35,1.35,0,0,0,17.3,8ZM12.47,2.8h1.06V7.9H12.47ZM8.38,9H17.3a.4.4,0,0,1,.27.12.68.68,0,0,1,.17.5c0,.49,0,1-.08,1.42H7.79c.07-.51.12-1,.15-1.51A.5.5,0,0,1,8.38,9Zm7.27,10.92a1.38,1.38,0,0,1-.37.56,1.46,1.46,0,0,1-.79.08l-.35,0-8-.14a.41.41,0,0,1-.32-.19.73.73,0,0,1-.08-.63h0A49.28,49.28,0,0,0,7.65,12H9.43C8.84,14.23,8,16.81,8,16.83a.5.5,0,0,0,.31.64l.16,0a.49.49,0,0,0,.47-.34s.95-2.83,1.55-5.16h1.81c-.59,2.24-1.44,4.82-1.45,4.84a.5.5,0,0,0,.31.64l.16,0a.5.5,0,0,0,.48-.34s.94-2.83,1.54-5.16h1.61c-.59,2.24-1.44,4.82-1.45,4.84a.5.5,0,0,0,.31.64l.16,0a.5.5,0,0,0,.48-.34S15.37,14.32,16,12h1.6A25.56,25.56,0,0,1,15.65,19.89Z" transform="translate(0 0)"/><rect x="19" y="17" width="1" height="1"/><rect x="19" y="19" width="1" height="1"/><rect x="3" y="16" width="1" height="1"/><rect x="21" y="17" width="1" height="1"/></g></svg>