<svg id="Layer_1" data-name="Layer 1" xmlns="http://www.w3.org/2000/svg" viewBox="0 0 24 14.4"><path d="M100.43,61.94a.67.67,0,0,0-.6.05l-6.35,4.19V62.4A2.54,2.54,0,0,0,90.83,60H79.38a2.52,2.52,0,0,0-2.63,2.41V72a2.55,2.55,0,0,0,2.65,2.43H90.84A2.55,2.55,0,0,0,93.48,72V68.18l6.35,4.18a.64.64,0,0,0,.35.1.53.53,0,0,0,.25,0,.49.49,0,0,0,.32-.45V62.39A.5.5,0,0,0,100.43,61.94Zm-8.1,10a1.46,1.46,0,0,1-1.5,1.41H79.41A1.47,1.47,0,0,1,77.89,72V62.38A1.47,1.47,0,0,1,79.41,61h11.4a1.45,1.45,0,0,1,1.52,1.41Zm7.28-1-5.75-3.78,5.75-3.79Z" transform="translate(-76.75 -59.98)" fill="#0d0c0c"/></svg>