<?xml version="1.0" encoding="utf-8"?>
<!-- Generator: Adobe Illustrator 25.4.1, SVG Export Plug-In . SVG Version: 6.00 Build 0)  -->
<svg version="1.1" id="Layer_1" xmlns="http://www.w3.org/2000/svg" xmlns:xlink="http://www.w3.org/1999/xlink" x="0px" y="0px"
	 viewBox="0 0 24 24" style="enable-background:new 0 0 24 24;" xml:space="preserve">
<g>
	<path d="M19.26,17.96c0.06-0.09,0.11-0.19,0.17-0.28c0.11-0.19,0.21-0.39,0.3-0.59c0.04-0.08,0.08-0.17,0.12-0.25
		c0.12-0.28,0.23-0.57,0.32-0.87c0.01-0.03,0.01-0.06,0.02-0.08c0.08-0.27,0.14-0.54,0.18-0.81c0.02-0.1,0.03-0.19,0.04-0.29
		c0.03-0.21,0.05-0.42,0.06-0.63c0.01-0.11,0.01-0.21,0.01-0.31c0-0.22,0-0.44-0.01-0.66c-0.01-0.09-0.01-0.17-0.01-0.26
		c-0.03-0.3-0.07-0.6-0.13-0.9c0-0.01,0-0.01,0-0.02h0c-0.32-1.54-1.1-3.02-2.34-4.21L12,2L5.98,7.88C4.78,9.05,4.02,10.49,3.69,12
		H3.69c0,0.02-0.01,0.04-0.01,0.06c-0.06,0.3-0.11,0.6-0.14,0.91c-0.01,0.06,0,0.11-0.01,0.17c-0.02,0.25-0.03,0.5-0.02,0.75
		c0,0.1,0.01,0.2,0.01,0.3c0.01,0.21,0.03,0.43,0.06,0.64c0.01,0.1,0.03,0.2,0.04,0.3c0.04,0.25,0.1,0.49,0.17,0.73
		c0.02,0.06,0.03,0.12,0.04,0.17c0.09,0.3,0.19,0.59,0.32,0.87c0.03,0.08,0.07,0.15,0.11,0.23c0.1,0.21,0.2,0.42,0.32,0.62
		c0.05,0.09,0.11,0.18,0.17,0.27C4.87,18.23,5,18.42,5.14,18.6c0.06,0.08,0.12,0.16,0.18,0.24c0.21,0.25,0.42,0.5,0.66,0.74
		c0.21,0.2,0.42,0.39,0.64,0.57c0.07,0.06,0.15,0.11,0.23,0.16c0.15,0.11,0.3,0.23,0.46,0.33c0.09,0.06,0.18,0.1,0.27,0.16
		c0.15,0.09,0.3,0.18,0.45,0.26c0.1,0.05,0.2,0.09,0.29,0.13c0.15,0.07,0.3,0.15,0.46,0.21c0.11,0.04,0.21,0.07,0.32,0.11
		c0.15,0.05,0.3,0.11,0.46,0.16c0.11,0.03,0.23,0.05,0.34,0.08c0.15,0.04,0.3,0.08,0.45,0.11c0.12,0.02,0.24,0.03,0.37,0.05
		c0.15,0.02,0.29,0.05,0.44,0.06c0.12,0.01,0.25,0.01,0.37,0.02c0.14,0.01,0.29,0.02,0.43,0.02c0,0,0.01,0,0.01,0
		c0.14,0,0.28-0.01,0.42-0.02c0.13-0.01,0.26-0.01,0.39-0.02c0.15-0.01,0.29-0.04,0.43-0.06c0.12-0.02,0.25-0.03,0.37-0.05
		c0.15-0.03,0.29-0.07,0.44-0.11c0.12-0.03,0.24-0.05,0.36-0.09c0.16-0.05,0.31-0.1,0.46-0.16c0.11-0.04,0.21-0.07,0.32-0.11
		c0.16-0.06,0.32-0.14,0.48-0.22c0.09-0.04,0.18-0.08,0.27-0.13c0.16-0.08,0.31-0.18,0.46-0.27c0.09-0.05,0.18-0.1,0.26-0.15
		c0.16-0.1,0.31-0.22,0.47-0.34c0.07-0.05,0.15-0.1,0.22-0.16c0.22-0.18,0.44-0.37,0.64-0.57l0.06-0.06
		c0.24-0.23,0.45-0.48,0.65-0.73c0.06-0.08,0.12-0.16,0.18-0.24C19.02,18.34,19.14,18.15,19.26,17.96z M7.38,9.31l4.63-4.52
		l4.59,4.44c0.81,0.78,1.37,1.73,1.66,2.77L5.75,12C6.05,10.99,6.6,10.07,7.38,9.31z"/>
</g>
</svg>
