<?xml version="1.0" encoding="utf-8"?>
<!-- Generator: Adobe Illustrator 25.4.1, SVG Export Plug-In . SVG Version: 6.00 Build 0)  -->
<svg version="1.1" xmlns="http://www.w3.org/2000/svg" xmlns:xlink="http://www.w3.org/1999/xlink" x="0px" y="0px"
	 viewBox="0 0 24 24" style="enable-background:new 0 0 24 24;" xml:space="preserve">
<symbol  id="material_x5F_system_x5F_icon_x5F_border" viewBox="0 -48 48 48">
	<rect y="-48" style="fill:none;" width="48" height="48"/>
</symbol>
<symbol  id="material_x5F_system_x5F_icon_x5F_grid" viewBox="0 -48 48 48">
	<g>
		<defs>
			<rect id="SVGID_1_" x="0" y="-48" width="48" height="48"/>
		</defs>
		<clipPath id="SVGID_00000183250473104382948310000009999455547933012662_">
			<use xlink:href="#SVGID_1_"  style="overflow:visible;"/>
		</clipPath>
		<g style="clip-path:url(#SVGID_00000183250473104382948310000009999455547933012662_);">
			<g>
				<line style="fill:none;stroke:#000000;stroke-width:0.25;stroke-miterlimit:10;" x1="2" y1="-48" x2="2" y2="0"/>
				<line style="fill:none;stroke:#000000;stroke-width:0.25;stroke-miterlimit:10;" x1="4" y1="-48" x2="4" y2="0"/>
				<line style="fill:none;stroke:#000000;stroke-width:0.25;stroke-miterlimit:10;" x1="6" y1="-48" x2="6" y2="0"/>
				<line style="fill:none;stroke:#000000;stroke-width:0.25;stroke-miterlimit:10;" x1="8" y1="-48" x2="8" y2="0"/>
				<line style="fill:none;stroke:#000000;stroke-width:0.25;stroke-miterlimit:10;" x1="10" y1="-48" x2="10" y2="0"/>
				<line style="fill:none;stroke:#000000;stroke-width:0.25;stroke-miterlimit:10;" x1="12" y1="-48" x2="12" y2="0"/>
				<line style="fill:none;stroke:#000000;stroke-width:0.25;stroke-miterlimit:10;" x1="14" y1="-48" x2="14" y2="0"/>
				<line style="fill:none;stroke:#000000;stroke-width:0.25;stroke-miterlimit:10;" x1="16" y1="-48" x2="16" y2="0"/>
				<line style="fill:none;stroke:#000000;stroke-width:0.25;stroke-miterlimit:10;" x1="18" y1="-48" x2="18" y2="0"/>
				<line style="fill:none;stroke:#000000;stroke-width:0.25;stroke-miterlimit:10;" x1="20" y1="-48" x2="20" y2="0"/>
				<line style="fill:none;stroke:#000000;stroke-width:0.25;stroke-miterlimit:10;" x1="22" y1="-48" x2="22" y2="0"/>
				<line style="fill:none;stroke:#000000;stroke-width:0.25;stroke-miterlimit:10;" x1="24" y1="-48" x2="24" y2="0"/>
				<line style="fill:none;stroke:#000000;stroke-width:0.25;stroke-miterlimit:10;" x1="26" y1="-48" x2="26" y2="0"/>
				<line style="fill:none;stroke:#000000;stroke-width:0.25;stroke-miterlimit:10;" x1="28" y1="-48" x2="28" y2="0"/>
				<line style="fill:none;stroke:#000000;stroke-width:0.25;stroke-miterlimit:10;" x1="30" y1="-48" x2="30" y2="0"/>
				<line style="fill:none;stroke:#000000;stroke-width:0.25;stroke-miterlimit:10;" x1="32" y1="-48" x2="32" y2="0"/>
				<line style="fill:none;stroke:#000000;stroke-width:0.25;stroke-miterlimit:10;" x1="34" y1="-48" x2="34" y2="0"/>
				<line style="fill:none;stroke:#000000;stroke-width:0.25;stroke-miterlimit:10;" x1="36" y1="-48" x2="36" y2="0"/>
				<line style="fill:none;stroke:#000000;stroke-width:0.25;stroke-miterlimit:10;" x1="38" y1="-48" x2="38" y2="0"/>
				<line style="fill:none;stroke:#000000;stroke-width:0.25;stroke-miterlimit:10;" x1="40" y1="-48" x2="40" y2="0"/>
				<line style="fill:none;stroke:#000000;stroke-width:0.25;stroke-miterlimit:10;" x1="42" y1="-48" x2="42" y2="0"/>
				<line style="fill:none;stroke:#000000;stroke-width:0.25;stroke-miterlimit:10;" x1="44" y1="-48" x2="44" y2="0"/>
				<line style="fill:none;stroke:#000000;stroke-width:0.25;stroke-miterlimit:10;" x1="46" y1="-48" x2="46" y2="0"/>
			</g>
			<g>
				<line style="fill:none;stroke:#000000;stroke-width:0.25;stroke-miterlimit:10;" x1="0" y1="-2" x2="48" y2="-2"/>
				<line style="fill:none;stroke:#000000;stroke-width:0.25;stroke-miterlimit:10;" x1="0" y1="-4" x2="48" y2="-4"/>
				<line style="fill:none;stroke:#000000;stroke-width:0.25;stroke-miterlimit:10;" x1="0" y1="-6" x2="48" y2="-6"/>
				<line style="fill:none;stroke:#000000;stroke-width:0.25;stroke-miterlimit:10;" x1="0" y1="-8" x2="48" y2="-8"/>
				<line style="fill:none;stroke:#000000;stroke-width:0.25;stroke-miterlimit:10;" x1="0" y1="-10" x2="48" y2="-10"/>
				<line style="fill:none;stroke:#000000;stroke-width:0.25;stroke-miterlimit:10;" x1="0" y1="-12" x2="48" y2="-12"/>
				<line style="fill:none;stroke:#000000;stroke-width:0.25;stroke-miterlimit:10;" x1="0" y1="-14" x2="48" y2="-14"/>
				<line style="fill:none;stroke:#000000;stroke-width:0.25;stroke-miterlimit:10;" x1="0" y1="-16" x2="48" y2="-16"/>
				<line style="fill:none;stroke:#000000;stroke-width:0.25;stroke-miterlimit:10;" x1="0" y1="-18" x2="48" y2="-18"/>
				<line style="fill:none;stroke:#000000;stroke-width:0.25;stroke-miterlimit:10;" x1="0" y1="-20" x2="48" y2="-20"/>
				<line style="fill:none;stroke:#000000;stroke-width:0.25;stroke-miterlimit:10;" x1="0" y1="-22" x2="48" y2="-22"/>
				<line style="fill:none;stroke:#000000;stroke-width:0.25;stroke-miterlimit:10;" x1="0" y1="-24" x2="48" y2="-24"/>
				<line style="fill:none;stroke:#000000;stroke-width:0.25;stroke-miterlimit:10;" x1="0" y1="-26" x2="48" y2="-26"/>
				<line style="fill:none;stroke:#000000;stroke-width:0.25;stroke-miterlimit:10;" x1="0" y1="-28" x2="48" y2="-28"/>
				<line style="fill:none;stroke:#000000;stroke-width:0.25;stroke-miterlimit:10;" x1="0" y1="-30" x2="48" y2="-30"/>
				<line style="fill:none;stroke:#000000;stroke-width:0.25;stroke-miterlimit:10;" x1="0" y1="-32" x2="48" y2="-32"/>
				<line style="fill:none;stroke:#000000;stroke-width:0.25;stroke-miterlimit:10;" x1="0" y1="-34" x2="48" y2="-34"/>
				<line style="fill:none;stroke:#000000;stroke-width:0.25;stroke-miterlimit:10;" x1="0" y1="-36" x2="48" y2="-36"/>
				<line style="fill:none;stroke:#000000;stroke-width:0.25;stroke-miterlimit:10;" x1="0" y1="-38" x2="48" y2="-38"/>
				<line style="fill:none;stroke:#000000;stroke-width:0.25;stroke-miterlimit:10;" x1="0" y1="-40" x2="48" y2="-40"/>
				<line style="fill:none;stroke:#000000;stroke-width:0.25;stroke-miterlimit:10;" x1="0" y1="-42" x2="48" y2="-42"/>
				<line style="fill:none;stroke:#000000;stroke-width:0.25;stroke-miterlimit:10;" x1="0" y1="-44" x2="48" y2="-44"/>
				<line style="fill:none;stroke:#000000;stroke-width:0.25;stroke-miterlimit:10;" x1="0" y1="-46" x2="48" y2="-46"/>
			</g>
			<g>
				<path d="M47.75-0.25v-47.5H0.25v47.5H47.75 M48,0H0v-48h48V0L48,0z"/>
			</g>
		</g>
	</g>
</symbol>
<symbol  id="material_x5F_system_x5F_icon_x5F_keylines" viewBox="0 -48 48 48">
	<g style="opacity:0.4;">
		<defs>
			
				<rect id="SVGID_00000004529171748451470620000008097654878106142908_" x="0" y="-48" style="opacity:0.4;" width="48" height="48"/>
		</defs>
		<clipPath id="SVGID_00000158003491431100521030000007481721814409260730_">
			<use xlink:href="#SVGID_00000004529171748451470620000008097654878106142908_"  style="overflow:visible;"/>
		</clipPath>
		
			<line style="clip-path:url(#SVGID_00000158003491431100521030000007481721814409260730_);fill:none;stroke:#000000;stroke-width:0.25;stroke-miterlimit:10;" x1="24" y1="0" x2="24" y2="-48"/>
		
			<line style="clip-path:url(#SVGID_00000158003491431100521030000007481721814409260730_);fill:none;stroke:#000000;stroke-width:0.25;stroke-miterlimit:10;" x1="48" y1="-24" x2="0" y2="-24"/>
		
			<line style="clip-path:url(#SVGID_00000158003491431100521030000007481721814409260730_);fill:none;stroke:#000000;stroke-width:0.25;stroke-miterlimit:10;" x1="48" y1="-16" x2="0" y2="-16"/>
		
			<line style="clip-path:url(#SVGID_00000158003491431100521030000007481721814409260730_);fill:none;stroke:#000000;stroke-width:0.25;stroke-miterlimit:10;" x1="48" y1="-32" x2="0" y2="-32"/>
		
			<line style="clip-path:url(#SVGID_00000158003491431100521030000007481721814409260730_);fill:none;stroke:#000000;stroke-width:0.25;stroke-miterlimit:10;" x1="32" y1="-48" x2="32" y2="0"/>
		
			<line style="clip-path:url(#SVGID_00000158003491431100521030000007481721814409260730_);fill:none;stroke:#000000;stroke-width:0.25;stroke-miterlimit:10;" x1="16" y1="-48" x2="16" y2="0"/>
		
			<line style="clip-path:url(#SVGID_00000158003491431100521030000007481721814409260730_);fill:none;stroke:#000000;stroke-width:0.25;stroke-miterlimit:10;" x1="47.75" y1="-0.25" x2="0.25" y2="-47.75"/>
		
			<line style="clip-path:url(#SVGID_00000158003491431100521030000007481721814409260730_);fill:none;stroke:#000000;stroke-width:0.25;stroke-miterlimit:10;" x1="0.25" y1="-0.25" x2="47.75" y2="-47.75"/>
		
			<path style="clip-path:url(#SVGID_00000158003491431100521030000007481721814409260730_);fill:none;stroke:#000000;stroke-width:0.25;stroke-miterlimit:10;" d="
			M24-14c-5.52,0-10-4.48-10-10c0-5.52,4.48-10,10-10c5.52,0,10,4.48,10,10C34-18.48,29.52-14,24-14z"/>
		
			<path style="clip-path:url(#SVGID_00000158003491431100521030000007481721814409260730_);fill:none;stroke:#000000;stroke-width:0.25;stroke-miterlimit:10;" d="
			M24-4C12.95-4,4-12.95,4-24c0-11.05,8.95-20,20-20c11.05,0,20,8.95,20,20C44-12.95,35.05-4,24-4z"/>
		
			<path style="clip-path:url(#SVGID_00000158003491431100521030000007481721814409260730_);fill:none;stroke:#000000;stroke-width:0.25;stroke-miterlimit:10;" d="
			M38-6H10c-2.21,0-4-1.79-4-4v-28c0-2.21,1.79-4,4-4h28c2.21,0,4,1.79,4,4v28C42-7.79,40.21-6,38-6z"/>
		
			<path style="clip-path:url(#SVGID_00000158003491431100521030000007481721814409260730_);fill:none;stroke:#000000;stroke-width:0.25;stroke-miterlimit:10;" d="
			M40-8H8c-2.21,0-4-1.79-4-4v-24c0-2.21,1.79-4,4-4h32c2.21,0,4,1.79,4,4l0,24C44-9.79,42.21-8,40-8z"/>
		
			<path style="clip-path:url(#SVGID_00000158003491431100521030000007481721814409260730_);fill:none;stroke:#000000;stroke-width:0.25;stroke-miterlimit:10;" d="
			M40-40v32c0,2.21-1.79,4-4,4H12C9.79-4,8-5.79,8-8v-32c0-2.21,1.79-4,4-4h24C38.21-44,40-42.21,40-40z"/>
		<g style="clip-path:url(#SVGID_00000158003491431100521030000007481721814409260730_);">
			<path d="M47.75-0.25v-47.5H0.25v47.5H47.75 M48,0H0v-48h48V0L48,0z"/>
		</g>
	</g>
</symbol>
<g>
	<g>
		<path d="M18,9.16H8c-0.29,0-0.53,0.24-0.53,0.53S7.71,10.22,8,10.22h10c0.29,0,0.53-0.24,0.53-0.53S18.29,9.16,18,9.16z"/>
		<path d="M18,11.91H8c-0.29,0-0.53,0.24-0.53,0.53S7.71,12.97,8,12.97h10c0.29,0,0.53-0.24,0.53-0.53S18.29,11.91,18,11.91z"/>
		<path d="M18,14.66H8c-0.29,0-0.53,0.24-0.53,0.53S7.71,15.72,8,15.72h10c0.29,0,0.53-0.24,0.53-0.53S18.29,14.66,18,14.66z"/>
		<path d="M18,17.41H8c-0.29,0-0.53,0.24-0.53,0.53S7.71,18.47,8,18.47h10c0.29,0,0.53-0.24,0.53-0.53S18.29,17.41,18,17.41z"/>
		<path d="M21.12,5.84l-3.41-3.41c-0.23-0.23-0.54-0.38-0.88-0.36L5.98,2.2c-0.8,0.01-1.45,0.67-1.45,1.47v16.79
			c0,0.81,0.66,1.47,1.47,1.47h14c0.81,0,1.47-0.66,1.47-1.47V6.68C21.47,6.36,21.35,6.06,21.12,5.84z M20.46,6.5
			c0.03,0.03,0.03,0.06,0.04,0.1l-3.5,0.27c-0.08-0.01-0.12-0.02-0.14-0.01c-0.01-0.06-0.03-0.19-0.03-0.49l0.13-3.31
			c0.03,0.01,0.06,0.01,0.09,0.04L20.46,6.5z M20,20.99H6c-0.29,0-0.53-0.24-0.53-0.53V3.68c0-0.29,0.23-0.52,0.52-0.53l10.02-0.13
			l-0.13,3.33c0,0.9,0.15,1.35,1.09,1.46l3.56-0.27v12.92C20.53,20.75,20.29,20.99,20,20.99z"/>
	</g>
</g>
<g id="border">
	
		<use xlink:href="#material_x5F_system_x5F_icon_x5F_border"  width="48" height="48" id="XMLID_2_" y="-48" transform="matrix(0.5 0 0 -0.5 -1.144415e-04 -8.010902e-05)" style="overflow:visible;"/>
</g>
<g id="grid" style="display:none;">
	
		<use xlink:href="#material_x5F_system_x5F_icon_x5F_grid"  width="48" height="48" id="XMLID_1_" x="0" y="-48" transform="matrix(0.5 0 0 -0.5 -1.144415e-04 -8.010902e-05)" style="display:inline;overflow:visible;opacity:0.15;"/>
</g>
<g id="keylines" style="display:none;">
	
		<use xlink:href="#material_x5F_system_x5F_icon_x5F_keylines"  width="48" height="48" id="XMLID_3_" x="0" y="-48" transform="matrix(0.5 0 0 -0.5 -1.144415e-04 -8.010902e-05)" style="display:inline;overflow:visible;"/>
</g>
</svg>
