<svg xmlns="http://www.w3.org/2000/svg" width="20" height="16.667" viewBox="0 0 20 16.667">
  <path id="Icon_awesome-user-times" data-name="Icon awesome-user-times" d="M18.427,7.812l1.425-1.484a.54.54,0,0,0,0-.742l-.713-.742a.49.49,0,0,0-.713,0L17,6.328,15.577,4.844a.49.49,0,0,0-.713,0l-.713.742a.54.54,0,0,0,0,.742l1.425,1.484L14.152,9.3a.54.54,0,0,0,0,.742l.713.742a.49.49,0,0,0,.713,0L17,9.3l1.425,1.484a.49.49,0,0,0,.713,0l.713-.742a.54.54,0,0,0,0-.742ZM7,8.333a4.086,4.086,0,0,0,4-4.167A4.086,4.086,0,0,0,7,0,4.086,4.086,0,0,0,3,4.167,4.086,4.086,0,0,0,7,8.333ZM9.8,9.375H9.279a5.244,5.244,0,0,1-4.557,0H4.2A4.292,4.292,0,0,0,0,13.75V15.1a1.533,1.533,0,0,0,1.5,1.562h11A1.533,1.533,0,0,0,14,15.1V13.75A4.292,4.292,0,0,0,9.8,9.375Z" fill="#c40233"/>
</svg>
