<?xml version="1.0" encoding="utf-8"?>
<!-- Generator: Adobe Illustrator 25.4.1, SVG Export Plug-In . SVG Version: 6.00 Build 0)  -->
<svg version="1.1" id="Layer_1" xmlns="http://www.w3.org/2000/svg" xmlns:xlink="http://www.w3.org/1999/xlink" x="0px" y="0px"
	 viewBox="0 0 220 680.68" style="enable-background:new 0 0 220 680.68;" xml:space="preserve">
<g>
	<path style="fill:#EAF6FF;" d="M208.21,212.74c-6.98-6.52-34.29-32.54-39.02-45.25c-4.52-12.14,0-51.93,0-51.93H51.83
		c0,0,4.52,39.79,0,51.93c-4.5,12.09-29.41,36.22-37.85,44.16c-7.09,4.91-11.74,13.19-11.74,22.57v23.33h216.25v-23.33
		C218.49,225.49,214.47,217.73,208.21,212.74z"/>
	<linearGradient id="SVGID_1_" gradientUnits="userSpaceOnUse" x1="234.1579" y1="658.2575" x2="-14.2565" y2="227.9912">
		<stop  offset="0.1068" style="stop-color:#03BCFF"/>
		<stop  offset="1" style="stop-color:#3381FF"/>
	</linearGradient>
	<path style="fill:url(#SVGID_1_);enable-background:new    ;" d="M186.47,680.68H33.53C15.01,680.68,0,665.4,0,646.55V239.15
		c2.79-17.99,15.01-34.13,33.53-34.13h152.93c18.52,0,28.97,9,33.53,34.13v407.39C220,665.4,204.99,680.68,186.47,680.68z"/>
	
		<linearGradient id="SVGID_00000083072705135633590580000008167690870475481761_" gradientUnits="userSpaceOnUse" x1="50.291" y1="58.1159" x2="169.4021" y2="58.1159">
		<stop  offset="0.1068" style="stop-color:#03BCFF"/>
		<stop  offset="1" style="stop-color:#3381FF"/>
	</linearGradient>
	<path style="fill:url(#SVGID_00000083072705135633590580000008167690870475481761_);enable-background:new    ;" d="M51.76,115.56
		l-1.47-43.3c0-3.59,1.79-6.98,4.86-9.23l68.72-50.33l11.62-8.98c6.92-5.35,17.51-3.38,21.57,4v0c1.39,2.53,2.24,5.28,2.49,8.11
		l9.84,99.74"/>
</g>
</svg>
