<?xml version="1.0" encoding="utf-8"?>
<!-- Generator: Adobe Illustrator 25.4.1, SVG Export Plug-In . SVG Version: 6.00 Build 0)  -->
<svg version="1.1" id="Layer_1" xmlns="http://www.w3.org/2000/svg" xmlns:xlink="http://www.w3.org/1999/xlink" x="0px" y="0px"
	 viewBox="0 0 212 680" style="enable-background:new 0 0 212 680;" xml:space="preserve">
<g>
	<g>
		<path style="fill:#FFC943;" d="M4.24,676C4.11,676,4,675.9,4,675.78V4.22C4,4.1,4.11,4,4.24,4h203.53c0.03,0,0.1,0,0.17,0.07
			C208,4.13,208,4.18,208,4.21v671.57c0,0.12-0.11,0.22-0.24,0.22H4.24z M106.01,597.58c-14.14,0-25.64,11.47-25.64,25.56
			s11.5,25.56,25.64,25.56c14.14,0,25.64-11.47,25.64-25.56S120.15,597.58,106.01,597.58z"/>
		<path style="fill:#1D1D1B;" d="M204,8v664H8V8H204 M106.01,652.7c16.34,0,29.64-13.26,29.64-29.56c0-16.3-13.3-29.56-29.64-29.56
			c-16.34,0-29.64,13.26-29.64,29.56C76.37,639.44,89.67,652.7,106.01,652.7 M207.77,0H4.24C1.9,0,0,1.89,0,4.22v671.55
			c0,2.33,1.9,4.22,4.24,4.22h203.52c2.34,0,4.24-1.89,4.24-4.22V4.22C212.01,1.89,210.11,0,207.77,0L207.77,0z M106.01,644.7
			c-11.96,0-21.64-9.66-21.64-21.56c0-11.91,9.69-21.56,21.64-21.56c11.96,0,21.64,9.66,21.64,21.56
			C127.65,635.04,117.96,644.7,106.01,644.7L106.01,644.7z"/>
	</g>
	<g>
		<rect x="7.55" y="7.95" style="fill:#F7B521;" width="61.15" height="664.1"/>
		
			<line style="fill:none;stroke:#1D1D1B;stroke-width:6;stroke-linecap:round;stroke-linejoin:round;stroke-miterlimit:10;" x1="3.8" y1="44.25" x2="42.79" y2="44.25"/>
		
			<line style="fill:none;stroke:#1D1D1B;stroke-width:6;stroke-linecap:round;stroke-linejoin:round;stroke-miterlimit:10;" x1="3.8" y1="109.28" x2="30.02" y2="109.28"/>
		
			<line style="fill:none;stroke:#1D1D1B;stroke-width:6;stroke-linecap:round;stroke-linejoin:round;stroke-miterlimit:10;" x1="3.8" y1="174.31" x2="49.27" y2="174.31"/>
		
			<line style="fill:none;stroke:#1D1D1B;stroke-width:6;stroke-linecap:round;stroke-linejoin:round;stroke-miterlimit:10;" x1="3.8" y1="239.34" x2="42.79" y2="239.34"/>
		
			<line style="fill:none;stroke:#1D1D1B;stroke-width:6;stroke-linecap:round;stroke-linejoin:round;stroke-miterlimit:10;" x1="3.8" y1="304.38" x2="30.02" y2="304.38"/>
		
			<line style="fill:none;stroke:#1D1D1B;stroke-width:6;stroke-linecap:round;stroke-linejoin:round;stroke-miterlimit:10;" x1="3.8" y1="369.41" x2="49.27" y2="369.41"/>
		
			<line style="fill:none;stroke:#1D1D1B;stroke-width:6;stroke-linecap:round;stroke-linejoin:round;stroke-miterlimit:10;" x1="3.8" y1="434.44" x2="34.07" y2="434.44"/>
		
			<line style="fill:none;stroke:#1D1D1B;stroke-width:6;stroke-linecap:round;stroke-linejoin:round;stroke-miterlimit:10;" x1="3.8" y1="499.47" x2="42.79" y2="499.47"/>
		
			<line style="fill:none;stroke:#1D1D1B;stroke-width:6;stroke-linecap:round;stroke-linejoin:round;stroke-miterlimit:10;" x1="3.8" y1="564.5" x2="26.54" y2="564.5"/>
		
			<line style="fill:none;stroke:#1D1D1B;stroke-width:6;stroke-linecap:round;stroke-linejoin:round;stroke-miterlimit:10;" x1="3.8" y1="629.55" x2="49.27" y2="629.55"/>
	</g>
</g>
</svg>
