<?xml version="1.0" encoding="utf-8"?>
<!-- Generator: Adobe Illustrator 25.4.1, SVG Export Plug-In . SVG Version: 6.00 Build 0)  -->
<svg version="1.1" id="Layer_1" xmlns="http://www.w3.org/2000/svg" xmlns:xlink="http://www.w3.org/1999/xlink" x="0px" y="0px"
	 viewBox="0 0 24 24" style="enable-background:new 0 0 24 24;" xml:space="preserve">
<g>
	<path d="M20,22H4c-1.1,0-2-0.9-2-2v0c0-1.1,0.9-2,2-2h16c1.1,0,2,0.9,2,2v0C22,21.1,21.1,22,20,22z"/>
</g>
<g>
	<path d="M20.59,15.93h-17c-0.83,0-1.5-0.67-1.5-1.5v0c0-0.83,0.67-1.5,1.5-1.5h17c0.83,0,1.5,0.67,1.5,1.5v0
		C22.09,15.25,21.42,15.93,20.59,15.93z"/>
</g>
<g>
	<path d="M21.09,10.49h-18c-0.55,0-1-0.45-1-1v0c0-0.55,0.45-1,1-1h18c0.55,0,1,0.45,1,1v0C22.09,10.04,21.64,10.49,21.09,10.49z"/>
</g>
<g>
	<path d="M21.59,5.99h-19c-0.28,0-0.5-0.22-0.5-0.5v0c0-0.28,0.22-0.5,0.5-0.5h19c0.28,0,0.5,0.22,0.5,0.5v0
		C22.09,5.77,21.86,5.99,21.59,5.99z"/>
</g>
<g>
	<path d="M21.75,2.5H2.25C2.11,2.5,2,2.39,2,2.25v0C2,2.11,2.11,2,2.25,2h19.5C21.89,2,22,2.11,22,2.25v0
		C22,2.39,21.89,2.5,21.75,2.5z"/>
</g>
</svg>
