<svg id="Layer_3" height="512" viewBox="0 0 64 64" width="512" xmlns="http://www.w3.org/2000/svg" data-name="Layer 3"><path d="m2 2h44v60h-44z" fill="#c8cded"/><path d="m42 56v-54h-40v56h38a2 2 0 0 0 2-2z" fill="#e2e7f6"/><g fill="#c8cded"><path d="m5 33h22v2h-22z"/><path d="m29 33h12v2h-12z"/><path d="m5 37h22v2h-22z"/><path d="m29 37h12v2h-12z"/><path d="m5 41h22v2h-22z"/><path d="m29 41h12v2h-12z"/><path d="m5 45h22v2h-22z"/><path d="m5 49h22v2h-22z"/><path d="m5 53h22v2h-22z"/></g><path d="m37 52-9 4 4-9z" fill="#686868"/><path d="m32 47 23.964-23.964a3.535 3.535 0 0 1 2.5-1.036 3.536 3.536 0 0 1 3.536 3.536 3.535 3.535 0 0 1 -1.036 2.5l-23.964 23.964z" fill="#474747"/><path d="m57.8 22.06a3.714 3.714 0 0 0 -1.93 1.068l-21.87 21.872 2.293 2.293a1 1 0 0 0 1.414 0l23.257-23.257a3.569 3.569 0 0 0 .412-.5 3.536 3.536 0 0 0 -3.576-1.476z" fill="#545454"/><path d="m50.879 27.464h4.243v7.071h-4.243z" fill="#b5b5b5" transform="matrix(.707 -.707 .707 .707 -6.397 46.556)"/><path d="m50.5 28.5 2.793 2.793a1 1 0 0 0 1.414 0l.793-.793-3.5-3.5z" fill="#ccc"/><path d="m28 6h14v14h-14z" fill="#5e87ca"/><path d="m39 15v-9h-11v11h9a2 2 0 0 0 2-2z" fill="#78a0d4"/><path d="m6 24h36v6h-36z" fill="#5e87ca"/><path d="m39 26v-2h-33v3h32a1 1 0 0 0 1-1z" fill="#78a0d4"/></svg>