<svg id="Layer_1_1_" enable-background="new 0 0 96 96" height="512" viewBox="0 0 96 96" width="512" xmlns="http://www.w3.org/2000/svg"><path d="m3 3h26v42h-26z" fill="#f68250"/><path d="m35 3h26v42h-26z" fill="#63b2b9"/><path d="m67 3h26v42h-26z" fill="#e6646e"/><path d="m3 51h26v42h-26z" fill="#63b2b9"/><path d="m16 3h13v42h-13z" fill="#e67645"/><path d="m16 51h13v42h-13z" fill="#50a3ab"/><path d="m35 51h26v42h-26z" fill="#f9be3c"/><path d="m48 3h13v42h-13z" fill="#50a3ab"/><path d="m48 51h13v42h-13z" fill="#f7aa3b"/><path d="m67 51h26v42h-26z" fill="#f68250"/><path d="m80 3h13v42h-13z" fill="#b4505a"/><path d="m80 51h13v42h-13z" fill="#e67645"/><path d="m10 19 6-11 6 11z" fill="#63b2b9"/><path d="m43 8h10v10h-10z" fill="#f9be3c"/><circle cx="80" cy="13" fill="#f68250" r="5"/><path d="m12.464 57.464h7.071v7.071h-7.071z" fill="#f68250" transform="matrix(.707 -.707 .707 .707 -38.447 29.18)"/><path d="m48 55 2.163 3.95 4.837.634-3.5 3.074.826 4.342-4.326-2.05-4.326 2.05.826-4.342-3.5-3.074 4.837-.634z" fill="#e6646e"/><path d="m80 56 5 3v5l-5 3-5-3v-5z" fill="#f9be3c"/><g fill="#8c645a"><path d="m23 25h-14c-.552 0-1-.447-1-1s.448-1 1-1h14c.552 0 1 .447 1 1s-.448 1-1 1z"/><path d="m23 30h-14c-.552 0-1-.447-1-1s.448-1 1-1h14c.552 0 1 .447 1 1s-.448 1-1 1z"/><path d="m23 35h-14c-.552 0-1-.447-1-1s.448-1 1-1h14c.552 0 1 .447 1 1s-.448 1-1 1z"/><path d="m23 40h-14c-.552 0-1-.447-1-1s.448-1 1-1h14c.552 0 1 .447 1 1s-.448 1-1 1z"/><path d="m55 25h-14c-.552 0-1-.447-1-1s.448-1 1-1h14c.552 0 1 .447 1 1s-.448 1-1 1z"/><path d="m55 30h-14c-.552 0-1-.447-1-1s.448-1 1-1h14c.552 0 1 .447 1 1s-.448 1-1 1z"/><path d="m55 35h-14c-.552 0-1-.447-1-1s.448-1 1-1h14c.552 0 1 .447 1 1s-.448 1-1 1z"/><path d="m55 40h-14c-.552 0-1-.447-1-1s.448-1 1-1h14c.552 0 1 .447 1 1s-.448 1-1 1z"/><path d="m87 25h-14c-.552 0-1-.447-1-1s.448-1 1-1h14c.552 0 1 .447 1 1s-.448 1-1 1z"/><path d="m87 30h-14c-.552 0-1-.447-1-1s.448-1 1-1h14c.552 0 1 .447 1 1s-.448 1-1 1z"/><path d="m87 35h-14c-.552 0-1-.447-1-1s.448-1 1-1h14c.552 0 1 .447 1 1s-.448 1-1 1z"/><path d="m87 40h-14c-.552 0-1-.447-1-1s.448-1 1-1h14c.552 0 1 .447 1 1s-.448 1-1 1z"/><path d="m23 73h-14c-.552 0-1-.447-1-1s.448-1 1-1h14c.552 0 1 .447 1 1s-.448 1-1 1z"/><path d="m23 78h-14c-.552 0-1-.447-1-1s.448-1 1-1h14c.552 0 1 .447 1 1s-.448 1-1 1z"/><path d="m23 83h-14c-.552 0-1-.447-1-1s.448-1 1-1h14c.552 0 1 .447 1 1s-.448 1-1 1z"/><path d="m23 88h-14c-.552 0-1-.447-1-1s.448-1 1-1h14c.552 0 1 .447 1 1s-.448 1-1 1z"/><path d="m55 73h-14c-.552 0-1-.447-1-1s.448-1 1-1h14c.552 0 1 .447 1 1s-.448 1-1 1z"/><path d="m55 78h-14c-.552 0-1-.447-1-1s.448-1 1-1h14c.552 0 1 .447 1 1s-.448 1-1 1z"/><path d="m55 83h-14c-.552 0-1-.447-1-1s.448-1 1-1h14c.552 0 1 .447 1 1s-.448 1-1 1z"/><path d="m55 88h-14c-.552 0-1-.447-1-1s.448-1 1-1h14c.552 0 1 .447 1 1s-.448 1-1 1z"/><path d="m87 73h-14c-.552 0-1-.447-1-1s.448-1 1-1h14c.552 0 1 .447 1 1s-.448 1-1 1z"/><path d="m87 78h-14c-.552 0-1-.447-1-1s.448-1 1-1h14c.552 0 1 .447 1 1s-.448 1-1 1z"/><path d="m87 83h-14c-.552 0-1-.447-1-1s.448-1 1-1h14c.552 0 1 .447 1 1s-.448 1-1 1z"/><path d="m75 88h-2c-.552 0-1-.447-1-1s.448-1 1-1h2c.552 0 1 .447 1 1s-.448 1-1 1z"/><circle cx="79" cy="87" r="1"/><circle cx="83" cy="87" r="1"/><circle cx="87" cy="87" r="1"/></g></svg>