<svg height="512pt" viewBox="0 0 511 512" width="512pt" xmlns="http://www.w3.org/2000/svg"><path d="m204.699219 329.003906-43.929688 43.941406-9.910156-9.910156-11.300781-11.3125 43.929687-43.929687 11.511719 11.507812zm0 0" fill="#9afbff"/><path d="m204.699219 329.003906-43.929688 43.941406-9.910156-9.910156 44.140625-43.734375zm0 0" fill="#55f9ff"/><path d="m512.492188 192.726562c0 51.484376-20.039063 99.875-56.453126 136.277344-36.390624 36.398438-84.792968 56.449219-136.273437 56.449219-51.484375 0-99.875-20.050781-136.277344-56.449219-36.398437-36.402344-56.449219-84.792968-56.449219-136.277344 0-51.480468 20.050782-99.871093 56.449219-136.273437 36.402344-36.402344 84.792969-56.453125 136.277344-56.453125 51.480469 0 99.882813 20.050781 136.273437 56.453125 36.414063 36.402344 56.453126 84.792969 56.453126 136.273437zm0 0" fill="#ffdd48"/><path d="m512.492188 192.726562c0 51.484376-20.039063 99.875-56.453126 136.277344-36.390624 36.398438-84.792968 56.449219-136.273437 56.449219v-385.453125c51.480469 0 99.882813 20.050781 136.273437 56.453125 36.414063 36.402344 56.453126 84.792969 56.453126 136.273437zm0 0" fill="#fcbe00"/><path d="m196.371094 387.324219-109.945313 109.945312c-9.820312 9.820313-22.710937 14.730469-35.601562 14.730469-6.449219 0-12.898438-1.230469-18.960938-3.679688-6.03125-2.449218-11.679687-6.101562-16.558593-10.972656-.03125-.027344-.050782-.046875-.082032-.078125-19.628906-19.632812-19.628906-51.5625 0-71.191406l109.945313-109.957031zm0 0" fill="#0087ff"/><path d="m446.488281 192.726562c0 69.992188-56.730469 126.726563-126.722656 126.726563-69.984375 0-126.726563-56.734375-126.726563-126.726563 0-69.992187 56.742188-126.722656 126.726563-126.722656 69.992187 0 126.722656 56.730469 126.722656 126.722656zm0 0" fill="#9afbff"/><path d="m446.488281 192.726562c0 69.992188-56.730469 126.726563-126.722656 126.726563v-253.449219c69.992187 0 126.722656 56.730469 126.722656 126.722656zm0 0" fill="#55f9ff"/><path d="m319.765625 51.003906c-78.144531 0-141.726563 63.582032-141.726563 141.722656 0 78.152344 63.582032 141.726563 141.726563 141.726563 78.152344 0 141.726563-63.574219 141.726563-141.726563 0-78.140624-63.574219-141.722656-141.726563-141.722656zm110.714844 126.722656h-53.8125c-1.25-32.679687-6.621094-65.230468-16.492188-89.164062 37.210938 14.492188 64.804688 48.371094 70.304688 89.164062zm-221.429688 30h53.8125c1.257813 32.683594 6.628907 65.234376 16.5 89.164063-37.222656-14.488281-64.8125-48.371094-70.3125-89.164063zm53.8125-30h-53.8125c5.5-40.792968 33.089844-74.671874 70.3125-89.164062-9.871093 23.933594-15.242187 56.484375-16.5 89.164062zm73.382813 97.132813c-7.101563 22.78125-14.632813 29.023437-16.480469 29.574219-1.839844-.550782-9.382813-6.792969-16.480469-29.574219-5.769531-18.519531-9.371094-41.941406-10.390625-67.132813h53.75c-1.027343 25.191407-4.617187 48.613282-10.398437 67.132813zm-43.351563-97.132813c1.019531-25.191406 4.621094-48.613281 10.390625-67.132812 7.097656-22.78125 14.640625-29.019531 16.480469-29.570312 1.847656.550781 9.378906 6.789062 16.480469 29.570312 5.78125 18.519531 9.371094 41.941406 10.398437 67.132812zm67.28125 119.164063c9.871094-23.929687 15.242188-56.480469 16.492188-89.164063h53.8125c-5.5 40.792969-33.09375 74.675782-70.304688 89.164063zm0 0" fill="#0087ff"/><g fill="#4b5be4"><path d="m319.765625 51.003906v30.019532c1.847656.550781 9.378906 6.789062 16.480469 29.570312 5.78125 18.519531 9.371094 41.941406 10.398437 67.132812h-26.878906v30h26.878906c-1.027343 25.191407-4.617187 48.613282-10.398437 67.132813-7.101563 22.78125-14.632813 29.023437-16.480469 29.574219v30.019531c78.152344 0 141.726563-63.574219 141.726563-141.726563 0-78.140624-63.574219-141.722656-141.726563-141.722656zm110.714844 126.722656h-53.8125c-1.25-32.679687-6.621094-65.230468-16.492188-89.164062 37.210938 14.492188 64.804688 48.371094 70.304688 89.164062zm-70.304688 119.164063c9.871094-23.929687 15.242188-56.480469 16.492188-89.164063h53.8125c-5.5 40.792969-33.09375 74.675782-70.304688 89.164063zm0 0"/><path d="m196.371094 387.324219-109.945313 109.945312c-9.820312 9.820313-22.710937 14.730469-35.601562 14.730469-6.449219 0-12.898438-1.230469-18.960938-3.679688-6.03125-2.449218-11.679687-6.101562-16.558593-10.972656l146.214843-144.875zm0 0"/></g></svg>