<?xml version="1.0" encoding="iso-8859-1"?>
<!-- Generator: Adobe Illustrator 19.0.0, SVG Export Plug-In . SVG Version: 6.00 Build 0)  -->
<svg version="1.1" id="Capa_1" xmlns="http://www.w3.org/2000/svg" xmlns:xlink="http://www.w3.org/1999/xlink" x="0px" y="0px"
	 viewBox="0 0 512 512" style="enable-background:new 0 0 512 512;" xml:space="preserve">
<g>
	<path style="fill:#57555C;" d="M337,436c-97.598,0-177-79.402-177-177v-3h30v3c0,81.056,65.944,147,147,147V436z"/>
	<path style="fill:#57555C;" d="M190,256h-30v-3c0-97.598,79.402-177,177-177v30c-81.056,0-147,65.944-147,147V256z"/>
</g>
<path style="fill:#FFE477;" d="M145,301H45c-24.813,0-45-20.187-45-45s20.187-45,45-45h100c24.813,0,45,20.187,45,45
	S169.813,301,145,301z"/>
<g>
	<path style="fill:#8B8992;" d="M337,326H230c-38.598,0-70-31.402-70-70h30c0,22.056,17.944,40,40,40h107V326z"/>
	<path style="fill:#8B8992;" d="M190,256h-30c0-38.598,31.402-70,70-70h107v30H230C207.944,216,190,233.944,190,256z"/>
</g>
<path style="fill:#FFA733;" d="M145,211H95v90h50c24.813,0,45-20.187,45-45S169.813,211,145,211z"/>
<path style="fill:#9BC9FF;" d="M512,351H322v-80h190V351z"/>
<path style="fill:#005ECE;" d="M512,241H322v-80h190V241z"/>
<g>
	<path style="fill:#B87FD9;" d="M512,131H322V51h190V131z"/>
	<path style="fill:#B87FD9;" d="M512,461H322v-80h190V461z"/>
</g>
<rect x="417" y="51" style="fill:#8034AD;" width="95" height="80"/>
<rect x="417" y="161" style="fill:#003F8A;" width="95" height="80"/>
<rect x="417" y="271" style="fill:#009AE5;" width="95" height="80"/>
<rect x="417" y="381" style="fill:#D5B4E8;" width="95" height="80"/>
<g>
</g>
<g>
</g>
<g>
</g>
<g>
</g>
<g>
</g>
<g>
</g>
<g>
</g>
<g>
</g>
<g>
</g>
<g>
</g>
<g>
</g>
<g>
</g>
<g>
</g>
<g>
</g>
<g>
</g>
</svg>
