<svg id="Capa_1" enable-background="new 0 0 512 512" height="512" viewBox="0 0 512 512" width="512" xmlns="http://www.w3.org/2000/svg"><g><path d="m456 392h-400c-13.255 0-24-10.745-24-24v-224c0-13.255 10.745-24 24-24h400c13.255 0 24 10.745 24 24v224c0 13.255-10.745 24-24 24z" fill="#e9f6ff"/><path d="m96 424h-80c-8.82 0-16-7.176-16-16v-80c0-4.418 3.578-8 8-8s8 3.582 8 8v80h80c4.422 0 8 3.582 8 8s-3.578 8-8 8z" fill="#9bd7ee"/><path d="m8 192c-4.422 0-8-3.582-8-8v-80c0-8.824 7.18-16 16-16h80c4.422 0 8 3.582 8 8s-3.578 8-8 8h-80v80c0 4.418-3.578 8-8 8z" fill="#9bd7ee"/><path d="m496 424h-80c-4.422 0-8-3.582-8-8s3.578-8 8-8h80v-80c0-4.418 3.578-8 8-8s8 3.582 8 8v80c0 8.824-7.18 16-16 16z" fill="#9bd7ee"/><path d="m504 192c-4.422 0-8-3.582-8-8v-80h-80c-4.422 0-8-3.582-8-8s3.578-8 8-8h80c8.82 0 16 7.176 16 16v80c0 4.418-3.578 8-8 8z" fill="#9bd7ee"/><g fill="#7dc3ee"><path d="m325.367 293.805c-1.25 1.492-2.602 2.887-4.039 4.172-7.336 6.535-16.594 9.852-27.516 9.852-28.578 0-51.828-23.25-51.828-51.828s23.25-51.828 51.828-51.828c10.383 0 20.398 3.059 28.977 8.848 3.672 2.48 8.641 1.508 11.109-2.152 2.469-3.664 1.508-8.637-2.156-11.109-11.234-7.578-24.352-11.586-37.93-11.586-37.398 0-67.828 30.426-67.828 67.828s30.43 67.828 67.828 67.828c14.75 0 27.945-4.809 38.164-13.91 2.008-1.793 3.914-3.762 5.656-5.848 2.836-3.387 2.391-8.434-1-11.27-3.405-2.845-8.444-2.376-11.265 1.003z"/><path d="m399.126 266.367h.015c22.531 0 40.859-17.539 40.859-39.098s-18.328-39.098-40.859-39.098h-31.797c-2.125 0-4.164.848-5.664 2.352-1.501 1.501-2.331 3.533-2.331 5.648h-.044v119.656c0 4.418 3.578 8 8 8s8-3.582 8-8v-49.367c.817-.004 1.682-.009 2.572-.014l48.115 54.667c1.586 1.797 3.789 2.715 6.008 2.715 1.883 0 3.766-.656 5.289-1.996 3.312-2.918 3.633-7.973.719-11.289zm.015-62.195c13.477 0 24.859 10.578 24.859 23.098s-11.383 23.098-24.859 23.098c-5.438 0-16.172.051-23.617.09-.039-7.348-.125-38.629-.148-46.285h23.765z"/><path d="m139.828 188.172c-37.398 0-67.828 30.426-67.828 67.828s30.43 67.828 67.828 67.828 67.828-30.426 67.828-67.828-30.429-67.828-67.828-67.828zm0 119.656c-28.578 0-51.828-23.25-51.828-51.828s23.25-51.828 51.828-51.828 51.828 23.25 51.828 51.828-23.25 51.828-51.828 51.828z"/><path d="m40 88h-24c-8.837 0-16 7.163-16 16v24c0 4.418 3.582 8 8 8 4.418 0 8-3.582 8-8v-24h24c4.418 0 8-3.582 8-8 0-4.418-3.582-8-8-8z"/><path d="m0 384v24c0 8.837 7.163 16 16 16h24c4.418 0 8-3.582 8-8 0-4.418-3.582-8-8-8h-24v-24c0-4.418-3.582-8-8-8-4.418 0-8 3.582-8 8z"/><path d="m472 424h24c8.837 0 16-7.163 16-16v-24c0-4.418-3.582-8-8-8-4.418 0-8 3.582-8 8v24h-24c-4.418 0-8 3.582-8 8 0 4.418 3.582 8 8 8z"/><path d="m512 128v-24c0-8.837-7.163-16-16-16h-24c-4.418 0-8 3.582-8 8 0 4.418 3.582 8 8 8h24v24c0 4.418 3.582 8 8 8 4.418 0 8-3.582 8-8z"/></g></g></svg>