<svg height="512" viewBox="0 0 64 64" width="512" xmlns="http://www.w3.org/2000/svg"><path d="m3 16h58v40h-58z" fill="#007579"/><path d="m32 16v40a8 8 0 0 0 -8-8h-5.95a.047.047 0 0 1 -.05-.05v-39.9a.047.047 0 0 1 .05-.05h5.95a8 8 0 0 1 8 8z" fill="#ffc477"/><path d="m32 56a4 4 0 0 0 -4-4h-21v-40h11v35.95a.047.047 0 0 0 .05.05h5.95a8 8 0 0 1 8 8z" fill="#ff9811"/><g fill="#e0e0e2"><path d="m10 16h8v2h-8z"/><path d="m10 21h4v2h-4z"/><path d="m10 26h6v2h-6z"/><path d="m10 31h8v2h-8z"/><path d="m10 36h2v2h-2z"/><path d="m14 36h4v2h-4z"/><path d="m10 41h8v2h-8z"/><path d="m42 45h16v2h-16z"/><path d="m49 40h9v2h-9z"/><path d="m47 35h11v2h-11z"/><path d="m44 30h14v2h-14z"/><path d="m44 25h14v2h-14z"/><path d="m39 20h12v2h-12z"/><path d="m53 20h5v2h-5z"/></g><path d="m42 42 4 10h-10a4 4 0 0 0 -4 4v-40a4 4 0 0 1 4-4h8l-4 8 9 4-4 5 6 6z" fill="#ffdaaa"/></svg>