<svg id="Capa_1" enable-background="new 0 0 512 512" height="512" viewBox="0 0 512 512" width="512" xmlns="http://www.w3.org/2000/svg"><g><g><path d="m482 90h-226-226l-30 30v347c0 24.814 20.186 45 45 45h211 211c24.814 0 45-20.186 45-45v-347z" fill="#f0f7ff"/><path d="m512 467v-347l-30-30h-226v422h211c24.814 0 45-20.186 45-45z" fill="#dfe7f4"/><path d="m467 0h-211-211c-24.814 0-45 20.186-45 45v75h256 256v-75c0-24.814-20.186-45-45-45z" fill="#575f64"/><path d="m512 45c0-24.814-20.186-45-45-45h-211v120h256z" fill="#474f54"/><g fill="#ffea00"><circle cx="91" cy="60" r="15"/><circle cx="151" cy="60" r="15"/><circle cx="211" cy="60" r="15"/></g></g><path d="m406 452h-90c-8.291 0-15-6.709-15-15v-91c0-8.291 6.709-15 15-15h90c8.291 0 15 6.709 15 15v91c0 8.291-6.709 15-15 15z" fill="#c7cfe1"/><path d="m406 180h-150-150c-8.291 0-15 6.709-15 15v91c0 8.291 6.709 15 15 15h150 150c8.291 0 15-6.709 15-15v-91c0-8.291-6.709-15-15-15z" fill="#fabe2c"/><path d="m421 286v-91c0-8.291-6.709-15-15-15h-150v121h150c8.291 0 15-6.709 15-15z" fill="#ff9100"/><path d="m256 331h-150c-8.291 0-15 6.709-15 15v91c0 8.291 6.709 15 15 15h150c8.291 0 15-6.709 15-15v-91c0-8.291-6.709-15-15-15z" fill="#dfe7f4"/><path d="m271 437v-91c0-8.291-6.709-15-15-15v121c8.291 0 15-6.709 15-15z" fill="#c7cfe1"/></g></svg>